<?xml version="1.0" encoding="UTF-8"?> <svg xmlns="http://www.w3.org/2000/svg" xmlns:xlink="http://www.w3.org/1999/xlink" width="143pt" height="150pt" viewBox="0 0 143 150"><g id="surface1"><path style=" stroke:none;fill-rule:nonzero;fill:rgb(100%,100%,100%);fill-opacity:1;" d="M 122.046875 28.234375 C 120.617188 26.800781 119.097656 25.441406 117.539062 24.132812 C 117.136719 27.65625 116.441406 31.144531 115.464844 34.558594 C 115.089844 35.839844 114.664062 37.261719 114.175781 38.648438 C 130.164062 55.605469 134.511719 80.390625 125.238281 101.738281 C 115.964844 123.082031 94.839844 136.910156 71.472656 136.933594 C 67.554688 136.9375 63.644531 136.550781 59.800781 135.78125 C 56.707031 140.664062 54.386719 144.320312 53.757812 145.21875 C 53.28125 145.910156 52.828125 146.5 52.378906 147.179688 C 83.6875 155.796875 116.898438 142.34375 133.257812 114.417969 C 149.617188 86.488281 145.011719 51.097656 122.046875 28.234375 Z M 122.046875 28.234375 "></path><path style=" stroke:none;fill-rule:nonzero;fill:rgb(100%,100%,100%);fill-opacity:1;" d="M 13.683594 88.449219 C 8.410156 87.8125 3.574219 85.199219 0.167969 81.140625 L 0 80.910156 C 0.574219 98.972656 8.042969 116.136719 20.886719 128.90625 C 21.171875 129.1875 21.453125 129.445312 21.738281 129.714844 C 23.398438 127.316406 26.027344 123.378906 29.03125 118.828125 C 20.988281 110.449219 15.644531 99.871094 13.683594 88.449219 Z M 13.683594 88.449219 "></path><path style=" stroke:none;fill-rule:nonzero;fill:rgb(100%,100%,100%);fill-opacity:1;" d="M 74.734375 92.632812 L 91.71875 92.632812 C 94.171875 92.832031 96.589844 91.945312 98.328125 90.207031 C 99.65625 88.824219 100.417969 86.992188 100.464844 85.078125 C 100.484375 83.320312 99.824219 81.621094 98.625 80.335938 C 97.289062 78.9375 95.40625 78.191406 93.46875 78.296875 L 83.933594 78.296875 C 87.050781 73.25 90.058594 67.988281 92.953125 62.511719 C 95.847656 57.03125 98.324219 51.707031 100.375 46.535156 C 102.382812 41.730469 104.105469 36.816406 105.53125 31.8125 C 106.703125 27.914062 107.359375 23.878906 107.476562 19.8125 C 107.476562 13.347656 105.757812 8.472656 102.320312 5.179688 C 98.886719 1.886719 93.207031 0.242188 85.289062 0.242188 C 74.378906 0.148438 63.5625 2.222656 53.472656 6.347656 C 44.21875 10.082031 35.613281 15.246094 27.972656 21.644531 C 21.1875 27.277344 15.453125 34.0625 11.042969 41.6875 C 6.960938 48.917969 4.917969 55.621094 4.910156 61.792969 C 4.910156 67.777344 5.980469 72.050781 8.117188 74.617188 C 10.257812 77.179688 13.476562 78.460938 17.753906 78.460938 C 23.1875 78.371094 28.519531 77.011719 33.320312 74.488281 C 38.671875 71.828125 43.644531 68.476562 48.113281 64.523438 C 52.527344 60.660156 56.480469 56.300781 59.890625 51.535156 C 62.800781 47.699219 64.949219 43.347656 66.21875 38.710938 C 66.476562 37.289062 66.628906 36.351562 66.707031 35.902344 C 66.761719 35.550781 66.792969 35.195312 66.796875 34.839844 C 66.910156 33.15625 66.179688 31.527344 64.851562 30.480469 C 63.566406 29.507812 61.992188 28.992188 60.378906 29.015625 C 58.574219 29.019531 56.808594 29.558594 55.316406 30.570312 C 53.6875 31.722656 52.566406 33.460938 52.199219 35.414062 C 51.207031 39.066406 49.449219 42.464844 47.042969 45.390625 C 44.382812 48.8125 41.421875 51.988281 38.191406 54.882812 C 35.222656 57.578125 31.996094 59.980469 28.554688 62.050781 C 25.371094 63.921875 22.882812 64.855469 21.066406 64.855469 C 19.894531 64.855469 19.148438 64.5625 18.824219 63.984375 C 18.441406 63.101562 18.273438 62.136719 18.335938 61.175781 C 18.5 58.589844 19.160156 56.054688 20.28125 53.714844 C 21.824219 50.28125 23.75 47.035156 26.027344 44.03125 C 28.859375 40.277344 32.015625 36.773438 35.460938 33.570312 C 39.386719 29.910156 43.730469 26.722656 48.410156 24.082031 C 53.550781 21.191406 59 18.886719 64.65625 17.207031 C 70.910156 15.359375 77.402344 14.449219 83.921875 14.5 C 86.328125 14.359375 88.726562 14.898438 90.839844 16.054688 C 92.457031 17.078125 93.261719 18.882812 93.261719 21.464844 C 93.066406 24.546875 92.378906 27.574219 91.226562 30.441406 C 89.574219 34.90625 87.652344 39.269531 85.480469 43.507812 C 83.023438 48.414062 80.171875 53.839844 76.925781 59.78125 C 73.675781 65.71875 70.171875 71.949219 66.410156 78.460938 C 61.863281 78.332031 58.433594 78.269531 56.101562 78.269531 L 50.445312 78.269531 C 48.457031 78.121094 46.515625 78.910156 45.203125 80.398438 C 44.054688 81.753906 43.433594 83.472656 43.449219 85.246094 C 43.445312 87.042969 44.0625 88.785156 45.203125 90.183594 C 46.558594 91.765625 48.5625 92.652344 50.652344 92.605469 L 58.046875 92.796875 C 53.113281 100.929688 30.511719 135.652344 28.050781 138.5 C 26.925781 139.726562 26.371094 141.367188 26.515625 143.019531 C 26.664062 144.675781 27.5 146.191406 28.824219 147.207031 C 30.347656 148.484375 32.28125 149.171875 34.273438 149.140625 C 36.546875 149.050781 38.671875 147.996094 40.113281 146.242188 C 41.542969 144.5625 43.253906 142.269531 45.265625 139.371094 C 47.277344 136.472656 71.796875 97.402344 74.734375 92.632812 Z M 74.734375 92.632812 "></path></g></svg> 